<svg width="120" height="40" viewBox="0 0 120 40" xmlns="http://www.w3.org/2000/svg">
  <path d="M26.78 16.18l-5.36-5.34L16.09 16l5.33 5.33 5.36-5.15zm2.04 2.04l5.36 5.33 5.33-5.33-5.36-5.34-5.33 5.34zm-8.62 8.61l-5.33 5.33-5.36-5.36 5.33-5.33 5.36 5.36zm-7.7-7.73L2.1 11.51 0 13.6l10.42 10.4 2.04-2.07-10.42-10.39 2.07-2.04 5.35 5.37zm5.53 9.99l2.06 2.03 10.42-10.39-2.06-2.06L16.87 19.27h.02zm10.42-10.4l2.04 2.03 10.42-10.42-2.03-2.06-10.43 10.45zm18.16 11.02l2.06 2.04L56.9 18.87l-2.06-2.03-10.39 10.38zm-5.24 5.26l2.04 2.06 10.4-10.42-2.03-2.04-10.41 10.4zm-10.4 10.39L31.85 38 22.4 28.56l2.03-2.04 7.42 7.42 7.42-7.42 2.04 2.05zm8.62-8.6l-2.03-2.05-10.42 10.39 2.06 2.04 10.39-10.38z" fill="#F0B90B"/>
  <path d="M37.88 19.31l-2.03 2.05-2.05-2.05 2.03-2.03 2.05 2.03z" fill="#F0B90B"/>
  <text x="45" y="27" font-family="Arial, sans-serif" font-size="18" font-weight="bold" fill="#F0B90B">Binance</text>
</svg>
